<svg xmlns="http://www.w3.org/2000/svg" viewBox="0 0 128 128" role="img" aria-label="Settings">
  <rect width="128" height="128" rx="24" fill="#eef2ff"/>
  <path d="M72.6 21 76 34.1a33.8 33.8 0 0 1 8.6 5l12.9-3.9 8.6 14.9-9.7 9.2a34 34 0 0 1 0 9.9l9.7 9.2-8.6 14.9-12.9-3.9a33.8 33.8 0 0 1-8.6 5L72.6 108H55.4L52 94.9a33.8 33.8 0 0 1-8.6-5l-12.9 3.9-8.6-14.9 9.7-9.2a34 34 0 0 1 0-9.9l-9.7-9.2 8.6-14.9 12.9 3.9a33.8 33.8 0 0 1 8.6-5L55.4 21h17.2Z" fill="#2563eb"/>
  <circle cx="64" cy="64" r="18" fill="#fff"/>
  <circle cx="64" cy="64" r="8" fill="#111827"/>
</svg>
